<svg width="1440" height="422" viewBox="0 0 1440 422" fill="none" xmlns="http://www.w3.org/2000/svg">
<path d="M902.074 391L897.912 376.455H901.271L903.679 386.561H903.8L906.456 376.455H909.332L911.981 386.582H912.109L914.517 376.455H917.876L913.714 391H910.717L907.947 381.49H907.834L905.071 391H902.074Z" fill="white"/>
<path d="M919.522 391V376.455H929.323V378.99H922.598V382.456H928.819V384.991H922.598V388.464H929.352V391H919.522Z" fill="white"/>
<path d="M931.768 391V376.455H937.592C938.662 376.455 939.555 376.613 940.27 376.93C940.985 377.248 941.522 377.688 941.882 378.251C942.242 378.81 942.422 379.454 942.422 380.183C942.422 380.751 942.308 381.251 942.081 381.682C941.854 382.108 941.541 382.458 941.143 382.733C940.75 383.003 940.301 383.195 939.794 383.308V383.45C940.348 383.474 940.866 383.63 941.349 383.919C941.837 384.208 942.232 384.613 942.535 385.134C942.838 385.65 942.99 386.265 942.99 386.98C942.99 387.752 942.798 388.441 942.415 389.047C942.036 389.648 941.475 390.124 940.731 390.474C939.988 390.825 939.072 391 937.983 391H931.768ZM934.844 388.486H937.351C938.208 388.486 938.833 388.322 939.226 387.996C939.619 387.664 939.815 387.224 939.815 386.675C939.815 386.272 939.718 385.917 939.524 385.609C939.33 385.302 939.053 385.06 938.693 384.885C938.338 384.71 937.914 384.622 937.422 384.622H934.844V388.486ZM934.844 382.541H937.123C937.545 382.541 937.919 382.468 938.246 382.321C938.577 382.169 938.838 381.956 939.027 381.682C939.221 381.407 939.318 381.078 939.318 380.695C939.318 380.169 939.131 379.745 938.757 379.423C938.388 379.101 937.862 378.94 937.18 378.94H934.844V382.541Z" fill="white"/>
<path d="M964.034 391H958.878V376.455H964.077C965.54 376.455 966.799 376.746 967.855 377.328C968.911 377.906 969.723 378.737 970.291 379.821C970.864 380.905 971.15 382.203 971.15 383.713C971.15 385.228 970.864 386.53 970.291 387.619C969.723 388.708 968.906 389.544 967.841 390.126C966.78 390.709 965.511 391 964.034 391ZM961.953 388.365H963.906C964.815 388.365 965.58 388.204 966.2 387.882C966.825 387.555 967.294 387.051 967.606 386.369C967.924 385.683 968.082 384.797 968.082 383.713C968.082 382.638 967.924 381.76 967.606 381.078C967.294 380.396 966.828 379.894 966.207 379.572C965.587 379.25 964.822 379.089 963.913 379.089H961.953V388.365Z" fill="white"/>
<path d="M973.429 391V376.455H983.23V378.99H976.504V382.456H982.725V384.991H976.504V388.464H983.258V391H973.429Z" fill="white"/>
<path d="M993.565 380.638C993.508 380.065 993.265 379.62 992.834 379.303C992.403 378.985 991.818 378.827 991.079 378.827C990.578 378.827 990.154 378.898 989.808 379.04C989.463 379.177 989.197 379.369 989.013 379.615C988.833 379.861 988.743 380.141 988.743 380.453C988.733 380.714 988.788 380.941 988.906 381.135C989.029 381.329 989.197 381.497 989.41 381.639C989.623 381.776 989.87 381.897 990.149 382.001C990.428 382.101 990.727 382.186 991.044 382.257L992.351 382.57C992.985 382.712 993.568 382.901 994.098 383.138C994.628 383.375 995.088 383.666 995.476 384.011C995.864 384.357 996.165 384.764 996.378 385.233C996.596 385.702 996.707 386.239 996.712 386.845C996.707 387.735 996.48 388.507 996.03 389.16C995.585 389.809 994.941 390.313 994.098 390.673C993.26 391.028 992.249 391.206 991.065 391.206C989.891 391.206 988.868 391.026 987.997 390.666C987.131 390.306 986.453 389.774 985.966 389.068C985.483 388.358 985.23 387.48 985.206 386.433H988.182C988.215 386.921 988.355 387.328 988.601 387.655C988.852 387.977 989.185 388.221 989.602 388.386C990.024 388.547 990.499 388.628 991.03 388.628C991.551 388.628 992.003 388.552 992.386 388.401C992.775 388.249 993.075 388.038 993.288 387.768C993.501 387.499 993.608 387.188 993.608 386.838C993.608 386.511 993.511 386.237 993.317 386.014C993.127 385.792 992.848 385.602 992.479 385.446C992.114 385.29 991.667 385.148 991.136 385.02L989.552 384.622C988.326 384.324 987.358 383.857 986.648 383.223C985.937 382.589 985.585 381.734 985.589 380.659C985.585 379.778 985.819 379.009 986.293 378.351C986.771 377.693 987.427 377.179 988.26 376.81C989.093 376.44 990.04 376.256 991.101 376.256C992.18 376.256 993.123 376.44 993.927 376.81C994.737 377.179 995.367 377.693 995.817 378.351C996.266 379.009 996.498 379.771 996.513 380.638H993.565Z" fill="white"/>
<path d="M1001.86 376.455V391H998.78V376.455H1001.86Z" fill="white"/>
<path d="M1014.03 381.156C1013.93 380.811 1013.79 380.505 1013.61 380.24C1013.43 379.97 1013.21 379.743 1012.95 379.558C1012.7 379.369 1012.4 379.224 1012.07 379.125C1011.74 379.026 1011.38 378.976 1010.98 378.976C1010.24 378.976 1009.59 379.16 1009.02 379.53C1008.46 379.899 1008.03 380.437 1007.72 381.142C1007.4 381.843 1007.25 382.7 1007.25 383.713C1007.25 384.726 1007.4 385.588 1007.71 386.298C1008.02 387.009 1008.45 387.551 1009.02 387.925C1009.58 388.294 1010.24 388.479 1011.01 388.479C1011.71 388.479 1012.3 388.356 1012.79 388.109C1013.29 387.858 1013.67 387.506 1013.93 387.051C1014.2 386.597 1014.33 386.059 1014.33 385.439L1014.95 385.531H1011.2V383.216H1017.29V385.048C1017.29 386.327 1017.02 387.425 1016.48 388.344C1015.94 389.258 1015.2 389.963 1014.25 390.46C1013.3 390.953 1012.22 391.199 1011 391.199C1009.63 391.199 1008.44 390.898 1007.4 390.297C1006.37 389.691 1005.57 388.831 1004.99 387.719C1004.42 386.601 1004.13 385.276 1004.13 383.741C1004.13 382.562 1004.3 381.511 1004.64 380.588C1004.99 379.66 1005.47 378.874 1006.09 378.23C1006.71 377.586 1007.43 377.096 1008.26 376.76C1009.08 376.424 1009.97 376.256 1010.93 376.256C1011.76 376.256 1012.52 376.376 1013.23 376.618C1013.95 376.855 1014.57 377.191 1015.12 377.626C1015.68 378.062 1016.13 378.581 1016.48 379.182C1016.83 379.778 1017.06 380.437 1017.16 381.156H1014.03Z" fill="white"/>
<path d="M1031.77 376.455V391H1029.11L1022.78 381.845H1022.68V391H1019.6V376.455H1022.3L1028.58 385.602H1028.71V376.455H1031.77Z" fill="white"/>
<path d="M1056.08 380.638C1056.03 380.065 1055.78 379.62 1055.35 379.303C1054.92 378.985 1054.34 378.827 1053.6 378.827C1053.1 378.827 1052.67 378.898 1052.33 379.04C1051.98 379.177 1051.72 379.369 1051.53 379.615C1051.35 379.861 1051.26 380.141 1051.26 380.453C1051.25 380.714 1051.31 380.941 1051.43 381.135C1051.55 381.329 1051.72 381.497 1051.93 381.639C1052.14 381.776 1052.39 381.897 1052.67 382.001C1052.95 382.101 1053.25 382.186 1053.56 382.257L1054.87 382.57C1055.5 382.712 1056.09 382.901 1056.62 383.138C1057.15 383.375 1057.61 383.666 1058 384.011C1058.38 384.357 1058.68 384.764 1058.9 385.233C1059.12 385.702 1059.23 386.239 1059.23 386.845C1059.23 387.735 1059 388.507 1058.55 389.16C1058.1 389.809 1057.46 390.313 1056.62 390.673C1055.78 391.028 1054.77 391.206 1053.58 391.206C1052.41 391.206 1051.39 391.026 1050.52 390.666C1049.65 390.306 1048.97 389.774 1048.49 389.068C1048 388.358 1047.75 387.48 1047.73 386.433H1050.7C1050.73 386.921 1050.87 387.328 1051.12 387.655C1051.37 387.977 1051.71 388.221 1052.12 388.386C1052.54 388.547 1053.02 388.628 1053.55 388.628C1054.07 388.628 1054.52 388.552 1054.91 388.401C1055.29 388.249 1055.59 388.038 1055.81 387.768C1056.02 387.499 1056.13 387.188 1056.13 386.838C1056.13 386.511 1056.03 386.237 1055.84 386.014C1055.65 385.792 1055.37 385.602 1055 385.446C1054.63 385.29 1054.19 385.148 1053.66 385.02L1052.07 384.622C1050.85 384.324 1049.88 383.857 1049.17 383.223C1048.46 382.589 1048.1 381.734 1048.11 380.659C1048.1 379.778 1048.34 379.009 1048.81 378.351C1049.29 377.693 1049.95 377.179 1050.78 376.81C1051.61 376.44 1052.56 376.256 1053.62 376.256C1054.7 376.256 1055.64 376.44 1056.45 376.81C1057.26 377.179 1057.89 377.693 1058.34 378.351C1058.79 379.009 1059.02 379.771 1059.03 380.638H1056.08Z" fill="white"/>
<path d="M1060.75 378.99V376.455H1072.69V378.99H1068.24V391H1065.2V378.99H1060.75Z" fill="white"/>
<path d="M1083.64 376.455H1086.72V385.901C1086.72 386.961 1086.47 387.889 1085.96 388.685C1085.46 389.48 1084.75 390.1 1083.85 390.545C1082.95 390.986 1081.89 391.206 1080.69 391.206C1079.48 391.206 1078.43 390.986 1077.52 390.545C1076.62 390.1 1075.91 389.48 1075.41 388.685C1074.91 387.889 1074.66 386.961 1074.66 385.901V376.455H1077.73V385.638C1077.73 386.192 1077.86 386.684 1078.1 387.115C1078.34 387.546 1078.69 387.884 1079.13 388.131C1079.58 388.377 1080.1 388.5 1080.69 388.5C1081.29 388.5 1081.8 388.377 1082.24 388.131C1082.69 387.884 1083.03 387.546 1083.27 387.115C1083.52 386.684 1083.64 386.192 1083.64 385.638V376.455Z" fill="white"/>
<path d="M1094.41 391H1089.25V376.455H1094.45C1095.91 376.455 1097.17 376.746 1098.23 377.328C1099.28 377.906 1100.09 378.737 1100.66 379.821C1101.24 380.905 1101.52 382.203 1101.52 383.713C1101.52 385.228 1101.24 386.53 1100.66 387.619C1100.09 388.708 1099.28 389.544 1098.21 390.126C1097.15 390.709 1095.88 391 1094.41 391ZM1092.32 388.365H1094.28C1095.19 388.365 1095.95 388.204 1096.57 387.882C1097.2 387.555 1097.67 387.051 1097.98 386.369C1098.29 385.683 1098.45 384.797 1098.45 383.713C1098.45 382.638 1098.29 381.76 1097.98 381.078C1097.67 380.396 1097.2 379.894 1096.58 379.572C1095.96 379.25 1095.19 379.089 1094.28 379.089H1092.32V388.365Z" fill="white"/>
<path d="M1106.87 376.455V391H1103.8V376.455H1106.87Z" fill="white"/>
<path d="M1122.77 383.727C1122.77 385.313 1122.47 386.663 1121.87 387.776C1121.27 388.888 1120.46 389.738 1119.43 390.325C1118.4 390.908 1117.24 391.199 1115.96 391.199C1114.67 391.199 1113.51 390.905 1112.48 390.318C1111.45 389.731 1110.64 388.881 1110.04 387.768C1109.45 386.656 1109.15 385.309 1109.15 383.727C1109.15 382.141 1109.45 380.792 1110.04 379.679C1110.64 378.566 1111.45 377.719 1112.48 377.136C1113.51 376.549 1114.67 376.256 1115.96 376.256C1117.24 376.256 1118.4 376.549 1119.43 377.136C1120.46 377.719 1121.27 378.566 1121.87 379.679C1122.47 380.792 1122.77 382.141 1122.77 383.727ZM1119.65 383.727C1119.65 382.7 1119.5 381.833 1119.19 381.128C1118.89 380.422 1118.46 379.887 1117.91 379.523C1117.35 379.158 1116.7 378.976 1115.96 378.976C1115.22 378.976 1114.57 379.158 1114.01 379.523C1113.46 379.887 1113.03 380.422 1112.72 381.128C1112.42 381.833 1112.27 382.7 1112.27 383.727C1112.27 384.755 1112.42 385.621 1112.72 386.327C1113.03 387.032 1113.46 387.567 1114.01 387.932C1114.57 388.296 1115.22 388.479 1115.96 388.479C1116.7 388.479 1117.35 388.296 1117.91 387.932C1118.46 387.567 1118.89 387.032 1119.19 386.327C1119.5 385.621 1119.65 384.755 1119.65 383.727Z" fill="white"/>
<path d="M131.08 339H80L157.83 113.545H219.258L296.978 339H245.898L189.425 165.065H187.663L131.08 339ZM127.887 250.381H248.54V287.59H127.887V250.381Z" fill="white"/>
<path d="M414.384 113.545H461.5V270.747C461.5 285.278 458.234 297.901 451.703 308.616C445.244 319.331 436.254 327.588 424.732 333.386C413.21 339.183 399.816 342.082 384.551 342.082C370.974 342.082 358.644 339.697 347.562 334.927C336.554 330.083 327.82 322.744 321.362 312.91C314.904 303.002 311.711 290.562 311.784 275.591H359.231C359.378 281.535 360.589 286.636 362.864 290.893C365.212 295.076 368.405 298.305 372.441 300.58C376.551 302.782 381.395 303.883 386.973 303.883C392.844 303.883 397.798 302.635 401.834 300.14C405.944 297.571 409.063 293.828 411.191 288.911C413.32 283.994 414.384 277.939 414.384 270.747V113.545Z" fill="white"/>
<path d="M539.771 339H488.691L566.522 113.545H627.949L705.669 339H654.59L598.116 165.065H596.355L539.771 339ZM536.578 250.381H657.232V287.59H536.578V250.381Z" fill="white"/>
<path d="M732.805 339V113.545H780.472V299.7H877.127V339H732.805Z" fill="white"/>
<path d="M953.306 339H902.227L980.057 113.545H1041.48L1119.2 339H1068.12L1011.65 165.065H1009.89L953.306 339ZM950.114 250.381H1070.77V287.59H950.114V250.381Z" fill="white"/>
<path d="M1146.34 339V113.545H1236.61C1253.2 113.545 1267.03 116.004 1278.11 120.921C1289.19 125.838 1297.52 132.664 1303.1 141.397C1308.68 150.057 1311.47 160.038 1311.47 171.34C1311.47 180.147 1309.71 187.89 1306.18 194.568C1302.66 201.173 1297.82 206.604 1291.65 210.861C1285.56 215.044 1278.59 218.016 1270.74 219.778V221.979C1279.32 222.346 1287.36 224.768 1294.85 229.245C1302.4 233.722 1308.53 239.997 1313.23 248.07C1317.93 256.069 1320.28 265.61 1320.28 276.692C1320.28 288.654 1317.3 299.333 1311.36 308.727C1305.49 318.047 1296.79 325.423 1285.27 330.854C1273.75 336.285 1259.54 339 1242.67 339H1146.34ZM1194.01 300.03H1232.87C1246.15 300.03 1255.84 297.498 1261.93 292.434C1268.02 287.297 1271.07 280.471 1271.07 271.958C1271.07 265.72 1269.56 260.216 1266.55 255.445C1263.54 250.675 1259.25 246.932 1253.67 244.217C1248.17 241.501 1241.6 240.143 1233.97 240.143H1194.01V300.03ZM1194.01 207.888H1229.34C1235.88 207.888 1241.67 206.751 1246.74 204.476C1251.88 202.127 1255.91 198.825 1258.85 194.568C1261.86 190.312 1263.36 185.211 1263.36 179.266C1263.36 171.12 1260.46 164.552 1254.66 159.561C1248.94 154.571 1240.79 152.075 1230.23 152.075H1194.01V207.888Z" fill="white"/>
<path d="M1036.82 98.8001C1021.43 96.0618 1001.46 86.0637 995.703 81.9508C985.203 74.4508 979.703 69.4507 978.203 57.4507C977.865 52.7283 979.576 49.4281 982.203 47.4927C983.462 46.5651 984.219 44.9565 983.704 43.4798C981.857 38.1739 981.059 33.1676 983.203 28.4508C985.703 22.9508 993.203 24.4508 988.703 29.9508C985.66 33.6701 986.69 39.7776 987.987 43.5842C988.372 44.7144 989.481 45.3728 990.663 45.5369C990.844 45.5619 991.023 45.5907 991.203 45.6233C994.595 46.2387 997.821 48.2012 999.703 51.4507C1004.2 61.9508 1005.7 68.9507 1013.7 76.4507L1014 76.7304C1021.25 83.5278 1029.31 91.0857 1037.82 95.3485C1038.94 95.9116 1039.23 97.4228 1038.34 98.3112C1037.94 98.7128 1037.37 98.8996 1036.82 98.8001Z" fill="white"/>
</svg>
